<svg width="26" height="28" viewBox="0 0 26 28" fill="none" xmlns="http://www.w3.org/2000/svg">
<path id="Shape" fill-rule="evenodd" clip-rule="evenodd" d="M1.125 27.37C1.54167 27.79 2.02778 28 2.58333 28H23.4167C23.9722 28 24.4583 27.79 24.875 27.37C25.2917 26.95 25.5 26.46 25.5 25.9V4.2C25.5 3.64 25.2917 3.15 24.875 2.73C24.4583 2.31 23.9722 2.1 23.4167 2.1H21.1597V0H18.9028V2.1H7.09722V0H4.84028V2.1H2.58333C2.02778 2.1 1.54167 2.31 1.125 2.73C0.708333 3.15 0.5 3.64 0.5 4.2V25.9C0.5 26.46 0.708333 26.95 1.125 27.37ZM23.4167 25.9H2.58333V10.85H23.4167V25.9ZM2.58333 8.75H23.4167V4.2H2.58333V8.75ZM13 16.8C12.6065 16.8 12.2766 16.6658 12.0104 16.3975C11.7442 16.1292 11.6111 15.7967 11.6111 15.4C11.6111 15.0033 11.7442 14.6708 12.0104 14.4025C12.2766 14.1342 12.6065 14 13 14C13.3935 14 13.7234 14.1342 13.9896 14.4025C14.2558 14.6708 14.3889 15.0033 14.3889 15.4C14.3889 15.7967 14.2558 16.1292 13.9896 16.3975C13.7234 16.6658 13.3935 16.8 13 16.8ZM6.45486 16.3975C6.72106 16.6658 7.05093 16.8 7.44444 16.8C7.83796 16.8 8.16782 16.6658 8.43403 16.3975C8.70023 16.1292 8.83333 15.7967 8.83333 15.4C8.83333 15.0033 8.70023 14.6708 8.43403 14.4025C8.16782 14.1342 7.83796 14 7.44444 14C7.05093 14 6.72106 14.1342 6.45486 14.4025C6.18866 14.6708 6.05556 15.0033 6.05556 15.4C6.05556 15.7967 6.18866 16.1292 6.45486 16.3975ZM18.5556 16.8C18.162 16.8 17.8322 16.6658 17.566 16.3975C17.2998 16.1292 17.1667 15.7967 17.1667 15.4C17.1667 15.0033 17.2998 14.6708 17.566 14.4025C17.8322 14.1342 18.162 14 18.5556 14C18.9491 14 19.2789 14.1342 19.5451 14.4025C19.8113 14.6708 19.9444 15.0033 19.9444 15.4C19.9444 15.7967 19.8113 16.1292 19.5451 16.3975C19.2789 16.6658 18.9491 16.8 18.5556 16.8ZM12.0104 21.9975C12.2766 22.2658 12.6065 22.4 13 22.4C13.3935 22.4 13.7234 22.2658 13.9896 21.9975C14.2558 21.7292 14.3889 21.3967 14.3889 21C14.3889 20.6033 14.2558 20.2708 13.9896 20.0025C13.7234 19.7342 13.3935 19.6 13 19.6C12.6065 19.6 12.2766 19.7342 12.0104 20.0025C11.7442 20.2708 11.6111 20.6033 11.6111 21C11.6111 21.3967 11.7442 21.7292 12.0104 21.9975ZM7.44444 22.4C7.05093 22.4 6.72106 22.2658 6.45486 21.9975C6.18866 21.7292 6.05556 21.3967 6.05556 21C6.05556 20.6033 6.18866 20.2708 6.45486 20.0025C6.72106 19.7342 7.05093 19.6 7.44444 19.6C7.83796 19.6 8.16782 19.7342 8.43403 20.0025C8.70023 20.2708 8.83333 20.6033 8.83333 21C8.83333 21.3967 8.70023 21.7292 8.43403 21.9975C8.16782 22.2658 7.83796 22.4 7.44444 22.4ZM17.566 21.9975C17.8322 22.2658 18.162 22.4 18.5556 22.4C18.9491 22.4 19.2789 22.2658 19.5451 21.9975C19.8113 21.7292 19.9444 21.3967 19.9444 21C19.9444 20.6033 19.8113 20.2708 19.5451 20.0025C19.2789 19.7342 18.9491 19.6 18.5556 19.6C18.162 19.6 17.8322 19.7342 17.566 20.0025C17.2998 20.2708 17.1667 20.6033 17.1667 21C17.1667 21.3967 17.2998 21.7292 17.566 21.9975Z" fill="#5B6593"/>
</svg>
