<?xml version="1.0" encoding="UTF-8"?>
<svg width="20px" height="30px" viewBox="0 0 20 30" version="1.1" xmlns="http://www.w3.org/2000/svg" xmlns:xlink="http://www.w3.org/1999/xlink">
    <title>Shape 3</title>
    <g id="SEO-USP" stroke="none" stroke-width="1" fill="none" fill-rule="evenodd">
        <g id="3_JC_USP_Desktop-1440px" transform="translate(-1047.000000, -577.000000)" fill="#5B6593" fill-rule="nonzero">
            <g id="USP" transform="translate(150.000000, 552.000000)">
                <g id="USP_Money" transform="translate(867.000000, 0.000000)">
                    <g id="Group-4" transform="translate(16.000000, 16.000000)">
                        <g id="Shape-2" transform="translate(14.500000, 9.000000)">
                            <path d="M2.03571429,30 C1.49285714,30 1.01785714,29.7954545 0.610714286,29.3863636 C0.203571429,28.9772727 0,28.5 0,27.9545455 L0,2.04545455 C0,1.5 0.203571429,1.02272727 0.610714286,0.613636364 C1.01785714,0.204545455 1.49285714,0 2.03571429,0 L16.9642857,0 C17.5071429,0 17.9821429,0.204545455 18.3892857,0.613636364 C18.7964286,1.02272727 19,1.5 19,2.04545455 L19,27.9545455 C19,28.5 18.7964286,28.9772727 18.3892857,29.3863636 C17.9821429,29.7954545 17.5071429,30 16.9642857,30 L2.03571429,30 Z M2.03571429,24.8863636 L2.03571429,27.9545455 L16.9642857,27.9545455 L16.9642857,24.8863636 L2.03571429,24.8863636 Z M9.5,27.4431818 C9.79404762,27.4431818 10.0372024,27.3465909 10.2294643,27.1534091 C10.4217262,26.9602273 10.5178571,26.7159091 10.5178571,26.4204545 C10.5178571,26.125 10.4217262,25.8806818 10.2294643,25.6875 C10.0372024,25.4943182 9.79404762,25.3977273 9.5,25.3977273 C9.20595238,25.3977273 8.96279762,25.4943182 8.77053571,25.6875 C8.57827381,25.8806818 8.48214286,26.125 8.48214286,26.4204545 C8.48214286,26.7159091 8.57827381,26.9602273 8.77053571,27.1534091 C8.96279762,27.3465909 9.20595238,27.4431818 9.5,27.4431818 Z M2.03571429,22.8409091 L16.9642857,22.8409091 L16.9642857,5.11363636 L2.03571429,5.11363636 L2.03571429,22.8409091 Z M2.03571429,3.06818182 L16.9642857,3.06818182 L16.9642857,2.04545455 L2.03571429,2.04545455 L2.03571429,3.06818182 Z M2.03571429,24.8863636 L2.03571429,27.9545455 L2.03571429,24.8863636 Z M2.03571429,3.06818182 L2.03571429,2.04545455 L2.03571429,3.06818182 Z" id="Shape"></path>
                        </g>
                    </g>
                </g>
            </g>
        </g>
    </g>
</svg>