<?xml version="1.0" encoding="UTF-8"?>
<svg width="30px" height="24px" viewBox="0 0 30 24" version="1.1" xmlns="http://www.w3.org/2000/svg" xmlns:xlink="http://www.w3.org/1999/xlink">
    <title>airplane_ticket_FILL0_wght400_GRAD0_opsz48</title>
    <g id="SEO-USP" stroke="none" stroke-width="1" fill="none" fill-rule="evenodd">
        <g id="3_JC_USP_Desktop-1440px" transform="translate(-175.000000, -580.000000)" fill="#5B6593" fill-rule="nonzero">
            <g id="USP" transform="translate(150.000000, 552.000000)">
                <g id="Group" transform="translate(16.000000, 16.000000)">
                    <g id="airplane_ticket_FILL0_wght400_GRAD0_opsz48" transform="translate(9.000000, 12.500000)">
                        <path d="M2.25,23 C1.6,23 1.0625,22.7963542 0.6375,22.3890625 C0.2125,21.9817708 0,21.4666667 0,20.84375 L0,15.3453125 C0.925,15.1536458 1.69375,14.7044271 2.30625,13.9976563 C2.91875,13.2908854 3.225,12.4583333 3.225,11.5 C3.225,10.5416667 2.91875,9.703125 2.30625,8.984375 C1.69375,8.265625 0.925,7.82239583 0,7.6546875 L0,2.15625 C0,1.53333333 0.2125,1.01822917 0.6375,0.6109375 C1.0625,0.203645833 1.6,0 2.25,0 L27.75,0 C28.4,0 28.9375,0.203645833 29.3625,0.6109375 C29.7875,1.01822917 30,1.53333333 30,2.15625 L30,20.84375 C30,21.4666667 29.7875,21.9817708 29.3625,22.3890625 C28.9375,22.7963542 28.4,23 27.75,23 L2.25,23 Z M2.25,20.84375 L27.75,20.84375 L27.75,2.15625 L2.25,2.15625 L2.25,6.0734375 C3.225,6.69635417 4.00625,7.475 4.59375,8.409375 C5.18125,9.34375 5.475,10.3739583 5.475,11.5 C5.475,12.6260417 5.18125,13.65625 4.59375,14.590625 C4.00625,15.525 3.225,16.3036458 2.25,16.9265625 L2.25,20.84375 Z M10.05,17.0703125 L23.85,13.440625 C24.275,13.3208333 24.5875,13.1291667 24.7875,12.865625 C24.9875,12.6020833 25.025,12.2666667 24.9,11.859375 C24.775,11.4520833 24.55,11.1705729 24.225,11.0148438 C23.9,10.8591146 23.5375,10.8291667 23.1375,10.925 L19.275,11.8953125 L13.05,6.0734375 L11.1,6.5046875 L14.9625,13.009375 L10.8,14.1234375 L8.85,12.578125 L7.7625,12.9375 L10.05,17.0703125 Z" id="Shape"></path>
                    </g>
                </g>
            </g>
        </g>
    </g>
</svg>