<svg width="28" height="27" viewBox="0 0 28 27" fill="none" xmlns="http://www.w3.org/2000/svg">
<path id="Shape" fill-rule="evenodd" clip-rule="evenodd" d="M13.0184 27C11.2046 26.9099 9.50554 26.4931 7.92128 25.7497C6.33702 25.0063 4.95941 24.0319 3.78844 22.8267C2.61747 21.6214 1.69332 20.219 1.01599 18.6195C0.338663 17.02 0 15.3191 0 13.5169C0 11.6471 0.361624 9.88986 1.08487 8.24531C1.80812 6.60075 2.78967 5.17021 4.02952 3.95369C5.26937 2.73717 6.72735 1.77409 8.40344 1.06446C10.0795 0.354819 11.8704 0 13.7761 0C17.1972 0 20.1706 1.05882 22.6962 3.17647C25.2218 5.29412 26.7716 7.95244 27.3456 11.1514H25.2448C24.8544 9.25907 24.0394 7.56946 22.7995 6.0826C21.5597 4.59575 20.0098 3.4806 18.1501 2.73717V3.34543C18.1501 4.13392 17.8745 4.82103 17.3235 5.40676C16.7724 5.99249 16.0951 6.28536 15.2915 6.28536H12.2952V9.22528C12.2952 9.60826 12.1402 9.92365 11.8303 10.1715C11.5203 10.4193 11.1702 10.5432 10.7798 10.5432H7.92128V13.5169H11.7097V17.7409H9.40221L2.37638 10.8473C2.26158 11.2979 2.18122 11.7428 2.1353 12.1821C2.08938 12.6214 2.06642 13.0663 2.06642 13.5169C2.06642 16.5582 3.11111 19.1827 5.20049 21.3905C7.28987 23.5982 9.89586 24.7922 13.0184 24.9725V27ZM26.5191 26.1214L21.9041 21.5932C21.4219 21.9312 20.8995 22.1902 20.337 22.3705C19.7745 22.5507 19.1948 22.6408 18.5978 22.6408C16.9676 22.6408 15.5843 22.0832 14.4477 20.9681C13.3112 19.8529 12.7429 18.4956 12.7429 16.8961C12.7429 15.2966 13.3112 13.9393 14.4477 12.8242C15.5843 11.709 16.9676 11.1514 18.5978 11.1514C20.228 11.1514 21.6113 11.709 22.7478 12.8242C23.8844 13.9393 24.4526 15.2966 24.4526 16.8961C24.4526 17.4819 24.3551 18.0507 24.1599 18.6026C23.9647 19.1546 23.7064 19.6783 23.385 20.174L28 24.6683L26.5191 26.1214ZM21.2841 19.5319C20.5494 20.2528 19.654 20.6133 18.5978 20.6133C17.5416 20.6133 16.6462 20.2528 15.9114 19.5319C15.1767 18.811 14.8093 17.9324 14.8093 16.8961C14.8093 15.8598 15.1767 14.9812 15.9114 14.2603C16.6462 13.5394 17.5416 13.179 18.5978 13.179C19.654 13.179 20.5494 13.5394 21.2841 14.2603C22.0189 14.9812 22.3862 15.8598 22.3862 16.8961C22.3862 17.9324 22.0189 18.811 21.2841 19.5319Z" fill="#5B6593"/>
</svg>
